Coordinates
version=1
nRows=11
nColumns=36
inDegrees=yes

Units are S.I. units (second, meters, Newtons, ...)
If the header above contains a line with 'inDegrees', this indicates whether rotational values are in degrees (yes) or radians (no).

endheader
time	pelvis_tilt	pelvis_list	pelvis_rotation	pelvis_tx	pelvis_ty	pelvis_tz	hip_flexion_r	hip_adduction_r	hip_rotation_r	knee_angle_r	knee_angle_r_beta	ankle_angle_r	subtalar_angle_r	mtp_angle_r	hip_flexion_l	hip_adduction_l	hip_rotation_l	knee_angle_l	knee_angle_l_beta	ankle_angle_l	subtalar_angle_l	mtp_angle_l	lumbar_extension	lumbar_bending	lumbar_rotation	arm_flex_r	arm_add_r	arm_rot_r	elbow_flex_r	pro_sup_r	arm_flex_l	arm_add_l	arm_rot_l	elbow_flex_l	pro_sup_l
      0.00000000	     -1.80355151	     -1.29995084	     -0.60853241	     -0.90739546	      1.30305651	     -0.07728573	      6.06651778	     -0.90795060	     -9.98504610	     13.30674843	      0.23224657	      1.25520158	    -16.32088340	     -5.55858922	      3.62141957	     -4.91761818	     -1.31427348	      9.95268711	      0.17370716	      6.16946634	      1.06845820	     -5.55858922	    -25.11422091	     -1.30028842	      2.92595651	     13.11136988	     -2.30970073	     21.93881353	     42.02374711	     85.38006621	      0.77160906	     -7.82191767	     10.10229649	     26.43247568	     67.31446792
      0.00416670	     -2.09709608	     -0.71786333	      0.09951064	     -0.90832406	      1.30464008	     -0.07748179	      6.85692121	     -1.16056479	     -9.46605414	     14.53378181	      0.25366235	      3.63761217	    -15.09761273	     -5.93475230	      4.77671028	     -3.66815801	      1.15960995	     10.98632159	      0.19174748	      6.94301102	      1.24305836	     -5.93475230	    -24.96871973	     -1.97840687	      2.29437436	     12.68078130	     -1.49357177	     19.00146271	     42.22188135	     83.13697115	      1.55847907	     -7.46933105	      8.45444390	     24.56233464	     66.93806678
      0.00833330	     -2.40800066	     -0.53388387	      0.08615111	     -0.91008110	      1.30458801	     -0.07685903	      7.09114694	     -1.11295825	     -9.97734888	     14.23587948	      0.24846297	      3.47697171	    -16.00102349	     -6.39585448	      5.16368750	     -3.57569481	      2.08514005	     10.87125577	      0.18973921	      7.12753363	      0.70375907	     -6.39585448	    -24.93282141	     -2.33140488	      2.64143010	     11.79165981	     -1.08408390	     16.56386167	     43.70728376	     86.83356310	      2.46929438	     -8.01829325	      8.75031601	     23.81381232	     73.77240135
      0.01250000	     -1.59796656	     -0.68283994	      0.48435131	     -0.91097339	      1.30810787	     -0.07715072	      6.06093303	     -0.89656408	    -10.19241756	     13.96755991	      0.24377991	      3.32132754	    -16.04773971	     -6.46062063	      4.12046623	     -3.66261864	      3.21656184	     10.26156749	      0.17909814	      7.12609177	     -0.14321809	     -6.46062063	    -26.03454347	     -2.07608636	      2.20433449	     11.72697524	     -1.53306523	     17.68638888	     44.60510741	     86.67774413	      2.92020267	     -8.45221749	      8.90931584	     23.47054061	     74.16983658
      0.01666670	     -1.34534494	     -0.77996319	      0.85715507	     -0.91051942	      1.30810224	     -0.07763225	      5.61889346	     -0.74739819	    -10.47885573	     13.72148576	      0.23948510	      3.19876001	    -16.17185096	     -6.54914619	      3.71112053	     -3.70344977	      4.01181137	      9.83787895	      0.17170338	      6.91924306	     -1.04583279	     -6.54914619	    -26.45195411	     -1.71377145	      1.96219268	     11.36576820	     -2.38368403	     19.78278892	     45.89086708	     86.25962608	      3.23802325	     -8.81981359	     11.05985453	     23.26515167	     75.46729181
      0.02083330	     -0.98593798	     -0.84848953	      1.20585912	     -0.91066304	      1.30953127	     -0.07820569	      5.10447754	     -0.61993795	    -10.53274490	     13.53814740	      0.23628525	      2.99161436	    -16.35922573	     -6.68201326	      3.35316938	     -3.72495944	      4.70709358	      9.78931253	      0.17085574	      6.96821351	     -1.43588788	     -6.68201326	    -26.92970939	     -1.44742695	      1.70588681	     11.12958120	     -2.78958499	     20.70048891	     46.21180939	     85.59880411	      3.59931627	     -8.95566756	     12.56614338	     22.97049011	     76.60249207
      0.02500000	     -0.60980022	     -0.93134505	      1.51864168	     -0.91066270	      1.31095189	     -0.07849347	      4.52514231	     -0.49533229	    -10.55989221	     13.25209315	      0.23129266	      2.61470597	    -16.67259976	     -6.73838163	      3.06543653	     -3.78096431	      5.05606928	      9.85409233	      0.17198636	      6.92130094	     -1.67605366	     -6.73838163	    -27.48500710	     -1.20278568	      1.62917024	     10.86551302	     -2.97567860	     20.65173895	     45.54136386	     84.52026788	      3.95045068	     -8.78028357	     12.77000534	     22.86119844	     75.96812247
      0.02916670	     -0.41395686	     -0.95680667	      1.78372750	     -0.91140920	      1.31358743	     -0.07852348	      4.13492923	     -0.43857205	    -10.65900742	     12.94890594	      0.22600104	      2.31925267	    -16.51108421	     -7.02660085	      2.97062400	     -3.76536228	      5.46066642	      9.95480423	      0.17374411	      6.57874179	     -2.19484699	     -7.02660085	    -27.75353589	     -1.07379956	      1.41840649	     10.68596513	     -3.13823912	     20.89319146	     45.49867075	     85.79603290	      4.26613194	     -8.90191432	     13.85184546	     22.70312901	     78.31750703
      0.03333330	     -0.17130439	     -0.97182566	      2.00181384	     -0.91155389	      1.31520703	     -0.07817830	      3.74868167	     -0.38075626	    -10.72409818	     12.67847508	      0.22128113	      1.93789884	    -16.45235416	     -7.08546017	      2.81512250	     -3.77660484	      5.71244488	     10.06766096	      0.17571383	      6.23464992	     -2.53200012	     -7.08546017	    -28.13253904	     -1.00842265	      1.19657701	     10.57163163	     -3.15112277	     20.93966454	     45.45554958	     84.32397495	      4.36043981	     -8.88285397	     13.58226028	     22.96946150	     77.07536299
      0.03750000	     -0.04610601	     -0.99754180	      2.15213857	     -0.91250849	      1.31384057	     -0.07844141	      3.53224198	     -0.31644559	    -10.84068650	     12.41750816	      0.21672640	      1.60357891	    -16.54591936	     -7.23559609	      2.79953532	     -3.79264120	      5.95380055	     10.12879466	      0.17678082	      5.86959984	     -3.01620995	     -7.23559609	    -28.38271555	     -0.92156225	      0.98019289	     10.53385262	     -3.15593951	     20.74976341	     45.52855551	     87.42072077	      4.39783954	     -8.87767695	     12.73505272	     23.26080805	     78.66254044
      0.04166670	      0.08555599	     -1.02529958	      2.23408212	     -0.91222181	      1.31010612	     -0.07848668	      3.36307774	     -0.24486939	    -10.76906454	     12.31186947	      0.21488266	      1.43815918	    -17.01147707	     -7.25436695	      2.77381332	     -3.81075084	      6.17805817	     10.21912115	      0.17835731	      5.89618169	     -3.21851600	     -7.25436695	    -28.58678212	     -0.84241501	      0.92985594	     10.48218662	     -3.24495433	     20.90142831	     45.72802674	     86.37715032	      4.37949363	     -8.88808772	     12.43447916	     23.70354378	     77.99152604
